<?xml version="1.0" standalone="no"?>
<!DOCTYPE svg PUBLIC "-//W3C//DTD SVG 20010904//EN"
 "http://www.w3.org/TR/2001/REC-SVG-20010904/DTD/svg10.dtd">
<svg version="1.0" xmlns="http://www.w3.org/2000/svg"
 width="1024.000000pt" height="1024.000000pt" viewBox="0 0 1024.000000 1024.000000"
 preserveAspectRatio="xMidYMid meet">
<metadata>
Created by potrace 1.15, written by Peter Selinger 2001-2017
</metadata>
<g transform="translate(0.000000,1024.000000) scale(0.100000,-0.100000)"
fill="#000000" stroke="none">
<path d="M795 10229 c-254 -37 -494 -190 -644 -412 -50 -73 -99 -186 -124
-284 l-22 -88 0 -4325 0 -4325 22 -88 c86 -335 332 -581 680 -680 l78 -22
4280 -3 c3059 -2 4304 0 4365 8 377 49 688 326 783 697 l22 88 0 4325 0 4325
-22 88 c-86 335 -332 581 -680 680 l-78 22 -4300 1 c-2394 1 -4327 -2 -4360
-7z m538 -815 c83 -43 277 -166 379 -241 162 -120 277 -222 488 -429 163 -160
257 -241 455 -396 197 -153 1168 -912 1773 -1385 52 -41 162 -119 245 -175
171 -115 269 -192 344 -267 l52 -53 83 6 c46 4 661 31 1368 61 1320 56 1430
62 1430 73 0 4 -50 146 -110 315 -61 170 -110 310 -110 312 0 4 41 11 107 19
l43 4 511 -595 512 -596 -7 -76 c-4 -42 -11 -80 -15 -84 -5 -5 -68 7 -141 27
-104 27 -135 32 -145 23 -7 -7 -66 -64 -131 -127 -66 -63 -465 -445 -887 -849
-456 -436 -766 -740 -763 -747 3 -7 153 -186 335 -397 l329 -384 144 -6 c78
-3 391 -15 693 -27 303 -11 590 -27 638 -34 240 -38 309 -165 182 -332 -14
-18 -212 -193 -441 -390 l-415 -357 -114 113 -113 113 -86 -73 c-47 -41 -86
-75 -86 -77 0 -2 16 -36 36 -76 51 -100 91 -224 104 -318 12 -83 8 -126 -17
-199 -15 -44 -14 -47 21 -149 20 -57 34 -106 32 -109 -3 -2 -48 19 -101 47
-94 51 -96 52 -149 42 -130 -24 -303 34 -494 166 -35 23 -66 43 -71 43 -4 0
-30 -19 -57 -42 -28 -24 -65 -55 -83 -71 l-33 -27 95 -129 95 -129 -56 -48
c-512 -443 -793 -678 -836 -699 -108 -53 -203 -28 -248 63 -18 38 -23 67 -26
159 -2 61 1 149 7 195 20 156 141 1241 141 1270 0 23 -64 104 -332 418 -183
214 -335 389 -338 389 -4 1 -330 -248 -665 -508 -55 -43 -296 -228 -535 -411
-730 -561 -780 -600 -780 -618 0 -18 15 -156 25 -224 l5 -38 -87 0 -88 1 -505
589 c-278 325 -506 597 -508 605 -3 13 24 135 32 142 2 2 137 -68 300 -157
164 -88 299 -160 300 -160 2 0 6 19 10 43 8 49 520 2631 541 2726 l14 64 -56
76 c-34 46 -104 174 -179 328 -68 139 -139 278 -158 310 -19 32 -311 553 -651
1158 -525 937 -631 1119 -714 1230 -190 253 -297 420 -411 639 -96 184 -211
466 -189 466 5 0 33 -12 62 -26z" fill="#0099cc"/>
</g>
</svg>
